<svg version="1.1" id="Layer_1" xmlns="http://www.w3.org/2000/svg" xmlns:xlink="http://www.w3.org/1999/xlink" x="0px" y="0px"
	 width="100%" viewBox="0 0 1181 1181" enable-background="new 0 0 1181 1181" xml:space="preserve">
<path fill="#FFFFFF" opacity="1.000000" stroke="none" 
	d="
M681.000000,1182.000000 
	C454.000000,1182.000000 227.500000,1182.000000 1.000000,1182.000000 
	C1.000000,788.333313 1.000000,394.666656 1.000000,1.000000 
	C394.666656,1.000000 788.333313,1.000000 1182.000000,1.000000 
	C1182.000000,394.666656 1182.000000,788.333313 1182.000000,1182.000000 
	C1015.166687,1182.000000 848.333313,1182.000000 681.000000,1182.000000 
M857.987488,778.507690 
	C858.566162,783.700867 861.502136,784.727539 866.489075,784.650330 
	C887.817078,784.320068 909.153137,784.509583 930.486267,784.509583 
	C932.238831,784.509583 933.991394,784.509583 936.140808,784.509583 
	C935.539246,782.480835 935.178406,781.064880 934.702881,779.688477 
	C906.349487,697.615723 877.984436,615.546875 849.625488,533.476013 
	C836.719971,496.127228 823.832825,458.772064 810.901733,421.432098 
	C810.194031,419.388336 810.088562,417.060394 806.608765,417.077515 
	C776.616394,417.225220 746.622986,417.162445 716.265625,417.162445 
	C674.009766,539.486633 631.774536,661.751160 589.368958,784.508728 
	C614.008118,784.508728 637.668030,784.572693 661.324951,784.337646 
	C662.639465,784.324585 664.600647,782.059692 665.130371,780.466858 
	C673.566833,755.098206 681.893860,729.692200 690.024231,704.223877 
	C691.129456,700.761780 692.658264,699.740234 696.244934,699.751160 
	C740.077515,699.884766 783.910767,699.890381 827.743225,699.742920 
	C831.418335,699.730530 832.850037,700.909424 833.933411,704.300293 
	C841.766235,728.817078 849.814514,753.264954 857.987488,778.507690 
M508.574249,573.908691 
	C510.365967,575.644958 512.209839,577.330994 513.938843,579.127625 
	C517.880859,583.223877 520.477661,583.326721 524.275696,579.249939 
	C532.451111,570.474487 540.577759,561.653564 548.710449,552.838440 
	C552.075562,549.190857 555.404907,545.510376 558.797668,541.793274 
	C546.002258,525.322632 529.519470,514.909973 510.349640,509.124512 
	C479.735199,499.885010 448.641052,499.520691 417.626160,507.091064 
	C383.034698,515.534424 355.748901,540.647705 352.602356,577.659851 
	C349.915649,609.262451 361.588654,635.812927 389.875153,651.965454 
	C408.531342,662.618652 429.283752,666.742676 449.698151,672.112183 
	C461.864044,675.312073 474.118073,678.670410 485.687317,683.502319 
	C496.593842,688.057434 500.495667,697.808411 498.963501,709.444702 
	C497.611938,719.709290 491.453674,726.186340 482.021240,729.763794 
	C469.981598,734.330078 457.453430,734.091553 445.050476,732.447998 
	C421.158142,729.282043 401.889862,717.735657 386.986206,698.805786 
	C383.965546,694.969116 380.738464,694.978882 377.444855,698.522400 
	C369.619659,706.941406 361.793518,715.359558 353.990295,723.798828 
	C349.611206,728.534851 345.276947,733.312317 340.979034,738.009277 
	C349.371216,752.989319 361.611603,763.223511 376.077789,771.044006 
	C394.953766,781.248474 415.303314,786.541138 436.531677,788.542847 
	C461.435089,790.890930 486.044556,789.963135 509.880524,781.182556 
	C548.222656,767.058350 567.999207,738.198181 567.041870,697.424316 
	C566.286804,665.263367 550.542969,643.204468 521.565979,630.046875 
	C502.140442,621.226318 481.141663,618.102722 460.705017,612.896667 
	C450.441559,610.282166 440.136627,607.402893 430.375580,603.371765 
	C421.722260,599.798279 417.243591,592.113159 417.304138,582.627991 
	C417.368195,572.586731 421.736969,564.472473 431.660004,561.495239 
	C439.819611,559.046997 448.472839,557.454529 456.974976,557.098083 
	C475.819397,556.308167 493.240356,561.062683 508.574249,573.908691 
M292.973175,648.534973 
	C282.649994,637.902893 270.212494,630.282349 256.191193,626.228516 
	C235.129227,620.139160 213.613281,615.635742 192.454056,609.858582 
	C185.021973,607.829346 177.371124,605.077820 171.045090,600.831360 
	C156.904999,591.339417 159.061630,569.266907 174.525955,562.221436 
	C179.712830,559.858337 185.535950,558.322449 191.210373,557.696289 
	C217.101578,554.839294 240.585266,559.922546 259.209045,579.772400 
	C262.367096,583.138367 265.365753,583.016907 268.490997,579.667358 
	C272.355530,575.525391 276.197052,571.361755 280.029663,567.190125 
	C287.781769,558.752258 295.521240,550.302734 303.203613,541.926086 
	C296.515778,532.704407 285.035095,523.202576 275.067719,517.745789 
	C257.152863,507.938049 237.850266,503.787354 217.662125,502.578125 
	C194.495743,501.190460 171.688889,502.627625 149.823441,511.022339 
	C107.598190,527.233704 89.036522,565.082825 99.548363,608.366943 
	C105.105606,631.249756 120.994362,645.681946 141.482773,655.724304 
	C158.232498,663.934204 176.453796,667.303833 194.261246,672.109131 
	C206.413483,675.388367 218.673798,678.706604 230.256577,683.521179 
	C239.965332,687.556824 244.521912,696.275269 243.783051,707.044434 
	C243.007217,718.352295 236.917007,725.792236 226.413193,729.792664 
	C214.516830,734.323425 202.121826,734.138855 189.916046,732.533997 
	C166.278412,729.425964 146.926239,718.253052 132.006653,699.508301 
	C128.061005,694.551086 125.597084,694.612671 121.155273,699.393494 
	C110.154671,711.233521 99.273209,723.185364 88.169846,734.927673 
	C85.888931,737.339844 85.879051,738.980591 87.627502,741.706543 
	C98.122551,758.068909 113.231377,768.718262 130.768951,775.947754 
	C166.770798,790.788635 204.009384,793.774353 241.878021,784.985535 
	C280.630707,775.991638 308.485931,750.011780 311.473083,708.016541 
	C313.021149,686.252502 308.722321,665.880554 292.973175,648.534973 
M989.639099,779.351624 
	C989.639099,780.948975 989.639099,782.546326 989.639099,784.122070 
	C1014.158264,784.122070 1038.030884,784.122070 1061.812256,784.122070 
	C1061.812256,661.656616 1061.812256,539.576111 1061.812256,417.551819 
	C1037.634155,417.551819 1013.764771,417.551819 989.639038,417.551819 
	C989.639038,538.086060 989.639038,658.235962 989.639099,779.351624 
z"/>
<path fill="#010101" opacity="1.000000" stroke="none" 
	d="
M857.890991,778.121155 
	C849.814514,753.264954 841.766235,728.817078 833.933411,704.300293 
	C832.850037,700.909424 831.418335,699.730530 827.743225,699.742920 
	C783.910767,699.890381 740.077515,699.884766 696.244934,699.751160 
	C692.658264,699.740234 691.129456,700.761780 690.024231,704.223877 
	C681.893860,729.692200 673.566833,755.098206 665.130371,780.466858 
	C664.600647,782.059692 662.639465,784.324585 661.324951,784.337646 
	C637.668030,784.572693 614.008118,784.508728 589.368958,784.508728 
	C631.774536,661.751160 674.009766,539.486633 716.265625,417.162445 
	C746.622986,417.162445 776.616394,417.225220 806.608765,417.077515 
	C810.088562,417.060394 810.194031,419.388336 810.901733,421.432098 
	C823.832825,458.772064 836.719971,496.127228 849.625488,533.476013 
	C877.984436,615.546875 906.349487,697.615723 934.702881,779.688477 
	C935.178406,781.064880 935.539246,782.480835 936.140808,784.509583 
	C933.991394,784.509583 932.238831,784.509583 930.486267,784.509583 
	C909.153137,784.509583 887.817078,784.320068 866.489075,784.650330 
	C861.502136,784.727539 858.566162,783.700867 857.890991,778.121155 
M793.048279,580.345154 
	C784.168030,553.221436 775.151611,526.140869 766.536499,498.933136 
	C765.032410,494.182770 762.943359,492.743347 758.244507,494.343903 
	C742.639099,542.270996 726.992615,590.324341 711.273254,638.601318 
	C745.253845,638.601318 778.480652,638.601318 812.188721,638.601318 
	C805.804077,619.203918 799.535461,600.158875 793.048279,580.345154 
z"/>
<path fill="#4E66E8" opacity="1.000000" stroke="none" 
	d="
M508.308472,573.674866 
	C493.240356,561.062683 475.819397,556.308167 456.974976,557.098083 
	C448.472839,557.454529 439.819611,559.046997 431.660004,561.495239 
	C421.736969,564.472473 417.368195,572.586731 417.304138,582.627991 
	C417.243591,592.113159 421.722260,599.798279 430.375580,603.371765 
	C440.136627,607.402893 450.441559,610.282166 460.705017,612.896667 
	C481.141663,618.102722 502.140442,621.226318 521.565979,630.046875 
	C550.542969,643.204468 566.286804,665.263367 567.041870,697.424316 
	C567.999207,738.198181 548.222656,767.058350 509.880524,781.182556 
	C486.044556,789.963135 461.435089,790.890930 436.531677,788.542847 
	C415.303314,786.541138 394.953766,781.248474 376.077789,771.044006 
	C361.611603,763.223511 349.371216,752.989319 340.979034,738.009277 
	C345.276947,733.312317 349.611206,728.534851 353.990295,723.798828 
	C361.793518,715.359558 369.619659,706.941406 377.444855,698.522400 
	C380.738464,694.978882 383.965546,694.969116 386.986206,698.805786 
	C401.889862,717.735657 421.158142,729.282043 445.050476,732.447998 
	C457.453430,734.091553 469.981598,734.330078 482.021240,729.763794 
	C491.453674,726.186340 497.611938,719.709290 498.963501,709.444702 
	C500.495667,697.808411 496.593842,688.057434 485.687317,683.502319 
	C474.118073,678.670410 461.864044,675.312073 449.698151,672.112183 
	C429.283752,666.742676 408.531342,662.618652 389.875153,651.965454 
	C361.588654,635.812927 349.915649,609.262451 352.602356,577.659851 
	C355.748901,540.647705 383.034698,515.534424 417.626160,507.091064 
	C448.641052,499.520691 479.735199,499.885010 510.349640,509.124512 
	C529.519470,514.909973 546.002258,525.322632 558.797668,541.793274 
	C555.404907,545.510376 552.075562,549.190857 548.710449,552.838440 
	C540.577759,561.653564 532.451111,570.474487 524.275696,579.249939 
	C520.477661,583.326721 517.880859,583.223877 513.938843,579.127625 
	C512.209839,577.330994 510.365967,575.644958 508.308472,573.674866 
z"/>
<path fill="#4E66E8" opacity="1.000000" stroke="none" 
	d="
M293.211182,648.800476 
	C308.722321,665.880554 313.021149,686.252502 311.473083,708.016541 
	C308.485931,750.011780 280.630707,775.991638 241.878021,784.985535 
	C204.009384,793.774353 166.770798,790.788635 130.768951,775.947754 
	C113.231377,768.718262 98.122551,758.068909 87.627502,741.706543 
	C85.879051,738.980591 85.888931,737.339844 88.169846,734.927673 
	C99.273209,723.185364 110.154671,711.233521 121.155273,699.393494 
	C125.597084,694.612671 128.061005,694.551086 132.006653,699.508301 
	C146.926239,718.253052 166.278412,729.425964 189.916046,732.533997 
	C202.121826,734.138855 214.516830,734.323425 226.413193,729.792664 
	C236.917007,725.792236 243.007217,718.352295 243.783051,707.044434 
	C244.521912,696.275269 239.965332,687.556824 230.256577,683.521179 
	C218.673798,678.706604 206.413483,675.388367 194.261246,672.109131 
	C176.453796,667.303833 158.232498,663.934204 141.482773,655.724304 
	C120.994362,645.681946 105.105606,631.249756 99.548363,608.366943 
	C89.036522,565.082825 107.598190,527.233704 149.823441,511.022339 
	C171.688889,502.627625 194.495743,501.190460 217.662125,502.578125 
	C237.850266,503.787354 257.152863,507.938049 275.067719,517.745789 
	C285.035095,523.202576 296.515778,532.704407 303.203613,541.926086 
	C295.521240,550.302734 287.781769,558.752258 280.029663,567.190125 
	C276.197052,571.361755 272.355530,575.525391 268.490997,579.667358 
	C265.365753,583.016907 262.367096,583.138367 259.209045,579.772400 
	C240.585266,559.922546 217.101578,554.839294 191.210373,557.696289 
	C185.535950,558.322449 179.712830,559.858337 174.525955,562.221436 
	C159.061630,569.266907 156.904999,591.339417 171.045090,600.831360 
	C177.371124,605.077820 185.021973,607.829346 192.454056,609.858582 
	C213.613281,615.635742 235.129227,620.139160 256.191193,626.228516 
	C270.212494,630.282349 282.649994,637.902893 293.211182,648.800476 
z"/>
<path fill="#000000" opacity="1.000000" stroke="none" 
	d="
M989.639038,778.868774 
	C989.639038,658.235962 989.639038,538.086060 989.639038,417.551819 
	C1013.764771,417.551819 1037.634155,417.551819 1061.812256,417.551819 
	C1061.812256,539.576111 1061.812256,661.656616 1061.812256,784.122070 
	C1038.030884,784.122070 1014.158264,784.122070 989.639099,784.122070 
	C989.639099,782.546326 989.639099,780.948975 989.639038,778.868774 
z"/>
<path fill="#FDFDFD" opacity="1.000000" stroke="none" 
	d="
M793.157593,580.729492 
	C799.535461,600.158875 805.804077,619.203918 812.188721,638.601318 
	C778.480652,638.601318 745.253845,638.601318 711.273254,638.601318 
	C726.992615,590.324341 742.639099,542.270996 758.244507,494.343903 
	C762.943359,492.743347 765.032410,494.182770 766.536499,498.933136 
	C775.151611,526.140869 784.168030,553.221436 793.157593,580.729492 
z"/>
</svg>